<svg width="959" height="959" viewBox="0 0 959 959" fill="none" xmlns="http://www.w3.org/2000/svg">
<path d="M845.057 326.956C839.493 331.272 741.256 386.612 741.256 509.664C741.256 651.993 866.259 702.346 870 703.593C869.424 706.662 850.142 772.552 804.093 839.688C763.033 898.769 720.151 957.753 654.916 957.753C589.68 957.753 572.892 919.869 497.584 919.869C424.194 919.869 398.1 959 338.429 959C278.758 959 237.122 904.332 189.251 837.195C133.801 758.357 89 635.881 89 519.638C89 333.19 210.261 234.307 329.603 234.307C393.015 234.307 445.875 275.932 485.688 275.932C523.582 275.932 582.677 231.813 654.82 231.813C682.161 231.813 780.397 234.307 845.057 326.956ZM620.571 152.88C650.407 117.489 671.512 68.3835 671.512 19.2778C671.512 12.4682 670.937 5.56276 669.689 0C621.147 1.82228 563.394 32.3215 528.57 72.6995C501.229 103.774 475.711 152.88 475.711 202.657C475.711 210.138 476.958 217.619 477.533 220.017C480.603 220.592 485.592 221.263 490.58 221.263C534.135 221.263 588.913 192.107 620.571 152.88Z" fill="black"/>
</svg>
